<mxfile host="app.diagrams.net" modified="2023-03-29T15:15:46.288Z" agent="Mozilla/5.0 (Windows NT 10.0; Win64; x64) AppleWebKit/537.36 (KHTML, like Gecko) Chrome/111.0.0.0 Safari/537.36" etag="-IkuhjMj5xrpi8fRQg24" version="21.1.1" type="github">
  <diagram name="Page-1" id="87PFL3ZLSFoNwFW6f_kC">
    <mxGraphModel dx="1434" dy="916" grid="1" gridSize="10" guides="1" tooltips="1" connect="1" arrows="1" fold="1" page="1" pageScale="1" pageWidth="827" pageHeight="1169" math="0" shadow="0">
      <root>
        <mxCell id="0" />
        <mxCell id="1" parent="0" />
        <mxCell id="6bFEEpHuwUB9A2b2xNG7-61" style="edgeStyle=orthogonalEdgeStyle;rounded=0;orthogonalLoop=1;jettySize=auto;html=1;endArrow=none;endFill=0;fontSize=14;fontFamily=Verdana;" parent="1" source="6bFEEpHuwUB9A2b2xNG7-63" edge="1">
          <mxGeometry relative="1" as="geometry">
            <Array as="points">
              <mxPoint x="650" y="230" />
              <mxPoint x="650" y="335" />
            </Array>
            <mxPoint x="602" y="335" as="targetPoint" />
          </mxGeometry>
        </mxCell>
        <mxCell id="6bFEEpHuwUB9A2b2xNG7-62" style="edgeStyle=orthogonalEdgeStyle;rounded=0;orthogonalLoop=1;jettySize=auto;html=1;fontFamily=Verdana;fontSize=14;endArrow=none;endFill=0;" parent="1" source="6bFEEpHuwUB9A2b2xNG7-63" target="6bFEEpHuwUB9A2b2xNG7-102" edge="1">
          <mxGeometry relative="1" as="geometry" />
        </mxCell>
        <mxCell id="6bFEEpHuwUB9A2b2xNG7-63" value="have" style="ellipse;whiteSpace=wrap;html=1;align=center;fillColor=#f8cecc;strokeColor=#b85450;fontSize=14;fontFamily=Verdana;" parent="1" vertex="1">
          <mxGeometry x="670" y="210" width="100" height="40" as="geometry" />
        </mxCell>
        <mxCell id="6bFEEpHuwUB9A2b2xNG7-90" value="devices" style="shape=table;startSize=35;container=1;collapsible=1;childLayout=tableLayout;fixedRows=1;rowLines=0;fontStyle=1;align=center;resizeLast=1;fillColor=#dae8fc;strokeColor=#6c8ebf;fontSize=14;fontFamily=Verdana;" parent="1" vertex="1">
          <mxGeometry x="1102" y="540" width="180" height="125" as="geometry" />
        </mxCell>
        <mxCell id="6bFEEpHuwUB9A2b2xNG7-91" value="" style="shape=partialRectangle;collapsible=0;dropTarget=0;pointerEvents=0;fillColor=none;top=0;left=0;bottom=1;right=0;points=[[0,0.5],[1,0.5]];portConstraint=eastwest;fontSize=14;fontFamily=Verdana;strokeColor=none;" parent="6bFEEpHuwUB9A2b2xNG7-90" vertex="1">
          <mxGeometry y="35" width="180" height="30" as="geometry" />
        </mxCell>
        <mxCell id="6bFEEpHuwUB9A2b2xNG7-92" value="" style="shape=partialRectangle;connectable=0;fillColor=none;top=0;left=0;bottom=0;right=0;fontStyle=1;overflow=hidden;fontSize=14;fontFamily=Verdana;strokeColor=none;" parent="6bFEEpHuwUB9A2b2xNG7-91" vertex="1">
          <mxGeometry width="30" height="30" as="geometry">
            <mxRectangle width="30" height="30" as="alternateBounds" />
          </mxGeometry>
        </mxCell>
        <mxCell id="6bFEEpHuwUB9A2b2xNG7-93" value="id_device" style="shape=partialRectangle;connectable=0;fillColor=none;top=0;left=0;bottom=0;right=0;align=left;spacingLeft=6;fontStyle=5;overflow=hidden;fontSize=14;fontFamily=Verdana;" parent="6bFEEpHuwUB9A2b2xNG7-91" vertex="1">
          <mxGeometry x="30" width="150" height="30" as="geometry">
            <mxRectangle width="150" height="30" as="alternateBounds" />
          </mxGeometry>
        </mxCell>
        <mxCell id="6bFEEpHuwUB9A2b2xNG7-94" value="" style="shape=partialRectangle;collapsible=0;dropTarget=0;pointerEvents=0;fillColor=none;top=0;left=0;bottom=0;right=0;points=[[0,0.5],[1,0.5]];portConstraint=eastwest;fontSize=14;fontFamily=Verdana;" parent="6bFEEpHuwUB9A2b2xNG7-90" vertex="1">
          <mxGeometry y="65" width="180" height="30" as="geometry" />
        </mxCell>
        <mxCell id="6bFEEpHuwUB9A2b2xNG7-95" value="" style="shape=partialRectangle;connectable=0;fillColor=none;top=0;left=0;bottom=0;right=0;editable=1;overflow=hidden;fontSize=14;fontFamily=Verdana;" parent="6bFEEpHuwUB9A2b2xNG7-94" vertex="1">
          <mxGeometry width="30" height="30" as="geometry">
            <mxRectangle width="30" height="30" as="alternateBounds" />
          </mxGeometry>
        </mxCell>
        <mxCell id="6bFEEpHuwUB9A2b2xNG7-96" value="firebase_token" style="shape=partialRectangle;connectable=0;fillColor=none;top=0;left=0;bottom=0;right=0;align=left;spacingLeft=6;overflow=hidden;fontSize=14;fontFamily=Verdana;" parent="6bFEEpHuwUB9A2b2xNG7-94" vertex="1">
          <mxGeometry x="30" width="150" height="30" as="geometry">
            <mxRectangle width="150" height="30" as="alternateBounds" />
          </mxGeometry>
        </mxCell>
        <mxCell id="6bFEEpHuwUB9A2b2xNG7-97" value="" style="shape=partialRectangle;collapsible=0;dropTarget=0;pointerEvents=0;fillColor=none;top=0;left=0;bottom=0;right=0;points=[[0,0.5],[1,0.5]];portConstraint=eastwest;fontSize=14;fontFamily=Verdana;" parent="6bFEEpHuwUB9A2b2xNG7-90" vertex="1">
          <mxGeometry y="95" width="180" height="20" as="geometry" />
        </mxCell>
        <mxCell id="6bFEEpHuwUB9A2b2xNG7-98" value="" style="shape=partialRectangle;connectable=0;fillColor=none;top=0;left=0;bottom=0;right=0;editable=1;overflow=hidden;fontSize=14;fontFamily=Verdana;" parent="6bFEEpHuwUB9A2b2xNG7-97" vertex="1">
          <mxGeometry width="30" height="20" as="geometry">
            <mxRectangle width="30" height="20" as="alternateBounds" />
          </mxGeometry>
        </mxCell>
        <mxCell id="6bFEEpHuwUB9A2b2xNG7-99" value="is_notif_actived_at" style="shape=partialRectangle;connectable=0;fillColor=none;top=0;left=0;bottom=0;right=0;align=left;spacingLeft=6;overflow=hidden;fontSize=14;fontFamily=Verdana;" parent="6bFEEpHuwUB9A2b2xNG7-97" vertex="1">
          <mxGeometry x="30" width="150" height="20" as="geometry">
            <mxRectangle width="150" height="20" as="alternateBounds" />
          </mxGeometry>
        </mxCell>
        <mxCell id="6bFEEpHuwUB9A2b2xNG7-101" value="" style="edgeStyle=orthogonalEdgeStyle;rounded=0;orthogonalLoop=1;jettySize=auto;html=1;endArrow=none;endFill=0;strokeColor=default;strokeWidth=1;fontSize=14;fontFamily=Verdana;" parent="1" target="6bFEEpHuwUB9A2b2xNG7-149" edge="1">
          <mxGeometry relative="1" as="geometry">
            <mxPoint x="602" y="350" as="sourcePoint" />
            <Array as="points">
              <mxPoint x="665" y="350" />
              <mxPoint x="665" y="615" />
            </Array>
          </mxGeometry>
        </mxCell>
        <mxCell id="6bFEEpHuwUB9A2b2xNG7-102" value="citizen_accounts" style="shape=table;startSize=30;container=1;collapsible=1;childLayout=tableLayout;fixedRows=1;rowLines=0;fontStyle=1;align=center;resizeLast=1;fillColor=#dae8fc;strokeColor=#6c8ebf;fontSize=14;fontFamily=Verdana;" parent="1" vertex="1">
          <mxGeometry x="849" y="70" width="200" height="360" as="geometry" />
        </mxCell>
        <mxCell id="6bFEEpHuwUB9A2b2xNG7-103" value="" style="shape=partialRectangle;collapsible=0;dropTarget=0;pointerEvents=0;fillColor=none;top=0;left=0;bottom=1;right=0;points=[[0,0.5],[1,0.5]];portConstraint=eastwest;fontSize=14;fontFamily=Verdana;strokeColor=none;" parent="6bFEEpHuwUB9A2b2xNG7-102" vertex="1">
          <mxGeometry y="30" width="200" height="30" as="geometry" />
        </mxCell>
        <mxCell id="6bFEEpHuwUB9A2b2xNG7-104" value="" style="shape=partialRectangle;connectable=0;fillColor=none;top=0;left=0;bottom=0;right=0;fontStyle=1;overflow=hidden;fontSize=14;fontFamily=Verdana;" parent="6bFEEpHuwUB9A2b2xNG7-103" vertex="1">
          <mxGeometry width="30" height="30" as="geometry">
            <mxRectangle width="30" height="30" as="alternateBounds" />
          </mxGeometry>
        </mxCell>
        <mxCell id="6bFEEpHuwUB9A2b2xNG7-105" value="id_citizen_account" style="shape=partialRectangle;connectable=0;fillColor=none;top=0;left=0;bottom=0;right=0;align=left;spacingLeft=6;fontStyle=5;overflow=hidden;fontSize=14;fontFamily=Verdana;strokeColor=none;" parent="6bFEEpHuwUB9A2b2xNG7-103" vertex="1">
          <mxGeometry x="30" width="170" height="30" as="geometry">
            <mxRectangle width="170" height="30" as="alternateBounds" />
          </mxGeometry>
        </mxCell>
        <mxCell id="6bFEEpHuwUB9A2b2xNG7-106" value="" style="shape=partialRectangle;collapsible=0;dropTarget=0;pointerEvents=0;fillColor=none;top=0;left=0;bottom=0;right=0;points=[[0,0.5],[1,0.5]];portConstraint=eastwest;fontSize=14;fontFamily=Verdana;" parent="6bFEEpHuwUB9A2b2xNG7-102" vertex="1">
          <mxGeometry y="60" width="200" height="30" as="geometry" />
        </mxCell>
        <mxCell id="6bFEEpHuwUB9A2b2xNG7-107" value="" style="shape=partialRectangle;connectable=0;fillColor=none;top=0;left=0;bottom=0;right=0;editable=1;overflow=hidden;fontSize=14;fontFamily=Verdana;" parent="6bFEEpHuwUB9A2b2xNG7-106" vertex="1">
          <mxGeometry width="30" height="30" as="geometry">
            <mxRectangle width="30" height="30" as="alternateBounds" />
          </mxGeometry>
        </mxCell>
        <mxCell id="6bFEEpHuwUB9A2b2xNG7-108" value="name" style="shape=partialRectangle;connectable=0;fillColor=none;top=0;left=0;bottom=0;right=0;align=left;spacingLeft=6;overflow=hidden;fontSize=14;fontFamily=Verdana;" parent="6bFEEpHuwUB9A2b2xNG7-106" vertex="1">
          <mxGeometry x="30" width="170" height="30" as="geometry">
            <mxRectangle width="170" height="30" as="alternateBounds" />
          </mxGeometry>
        </mxCell>
        <mxCell id="6bFEEpHuwUB9A2b2xNG7-109" value="" style="shape=partialRectangle;collapsible=0;dropTarget=0;pointerEvents=0;fillColor=none;top=0;left=0;bottom=0;right=0;points=[[0,0.5],[1,0.5]];portConstraint=eastwest;fontSize=14;fontFamily=Verdana;" parent="6bFEEpHuwUB9A2b2xNG7-102" vertex="1">
          <mxGeometry y="90" width="200" height="30" as="geometry" />
        </mxCell>
        <mxCell id="6bFEEpHuwUB9A2b2xNG7-110" value="" style="shape=partialRectangle;connectable=0;fillColor=none;top=0;left=0;bottom=0;right=0;editable=1;overflow=hidden;fontSize=14;fontFamily=Verdana;" parent="6bFEEpHuwUB9A2b2xNG7-109" vertex="1">
          <mxGeometry width="30" height="30" as="geometry">
            <mxRectangle width="30" height="30" as="alternateBounds" />
          </mxGeometry>
        </mxCell>
        <mxCell id="6bFEEpHuwUB9A2b2xNG7-111" value="email" style="shape=partialRectangle;connectable=0;fillColor=none;top=0;left=0;bottom=0;right=0;align=left;spacingLeft=6;overflow=hidden;fontSize=14;fontFamily=Verdana;" parent="6bFEEpHuwUB9A2b2xNG7-109" vertex="1">
          <mxGeometry x="30" width="170" height="30" as="geometry">
            <mxRectangle width="170" height="30" as="alternateBounds" />
          </mxGeometry>
        </mxCell>
        <mxCell id="6bFEEpHuwUB9A2b2xNG7-112" value="" style="shape=partialRectangle;collapsible=0;dropTarget=0;pointerEvents=0;fillColor=none;top=0;left=0;bottom=0;right=0;points=[[0,0.5],[1,0.5]];portConstraint=eastwest;fontSize=14;fontFamily=Verdana;" parent="6bFEEpHuwUB9A2b2xNG7-102" vertex="1">
          <mxGeometry y="120" width="200" height="30" as="geometry" />
        </mxCell>
        <mxCell id="6bFEEpHuwUB9A2b2xNG7-113" value="" style="shape=partialRectangle;connectable=0;fillColor=none;top=0;left=0;bottom=0;right=0;editable=1;overflow=hidden;fontSize=14;fontFamily=Verdana;" parent="6bFEEpHuwUB9A2b2xNG7-112" vertex="1">
          <mxGeometry width="30" height="30" as="geometry">
            <mxRectangle width="30" height="30" as="alternateBounds" />
          </mxGeometry>
        </mxCell>
        <mxCell id="6bFEEpHuwUB9A2b2xNG7-114" value="password" style="shape=partialRectangle;connectable=0;fillColor=none;top=0;left=0;bottom=0;right=0;align=left;spacingLeft=6;overflow=hidden;fontSize=14;fontFamily=Verdana;" parent="6bFEEpHuwUB9A2b2xNG7-112" vertex="1">
          <mxGeometry x="30" width="170" height="30" as="geometry">
            <mxRectangle width="170" height="30" as="alternateBounds" />
          </mxGeometry>
        </mxCell>
        <mxCell id="6bFEEpHuwUB9A2b2xNG7-115" value="" style="shape=partialRectangle;collapsible=0;dropTarget=0;pointerEvents=0;fillColor=none;top=0;left=0;bottom=0;right=0;points=[[0,0.5],[1,0.5]];portConstraint=eastwest;fontSize=14;fontFamily=Verdana;" parent="6bFEEpHuwUB9A2b2xNG7-102" vertex="1">
          <mxGeometry y="150" width="200" height="30" as="geometry" />
        </mxCell>
        <mxCell id="6bFEEpHuwUB9A2b2xNG7-116" value="" style="shape=partialRectangle;connectable=0;fillColor=none;top=0;left=0;bottom=0;right=0;editable=1;overflow=hidden;fontSize=14;fontFamily=Verdana;" parent="6bFEEpHuwUB9A2b2xNG7-115" vertex="1">
          <mxGeometry width="30" height="30" as="geometry">
            <mxRectangle width="30" height="30" as="alternateBounds" />
          </mxGeometry>
        </mxCell>
        <mxCell id="6bFEEpHuwUB9A2b2xNG7-117" value="phone" style="shape=partialRectangle;connectable=0;fillColor=none;top=0;left=0;bottom=0;right=0;align=left;spacingLeft=6;overflow=hidden;fontSize=14;fontFamily=Verdana;" parent="6bFEEpHuwUB9A2b2xNG7-115" vertex="1">
          <mxGeometry x="30" width="170" height="30" as="geometry">
            <mxRectangle width="170" height="30" as="alternateBounds" />
          </mxGeometry>
        </mxCell>
        <mxCell id="6bFEEpHuwUB9A2b2xNG7-127" value="" style="shape=partialRectangle;collapsible=0;dropTarget=0;pointerEvents=0;fillColor=none;top=0;left=0;bottom=0;right=0;points=[[0,0.5],[1,0.5]];portConstraint=eastwest;fontSize=14;fontFamily=Verdana;" parent="6bFEEpHuwUB9A2b2xNG7-102" vertex="1">
          <mxGeometry y="180" width="200" height="30" as="geometry" />
        </mxCell>
        <mxCell id="6bFEEpHuwUB9A2b2xNG7-128" value="" style="shape=partialRectangle;connectable=0;fillColor=none;top=0;left=0;bottom=0;right=0;editable=1;overflow=hidden;fontSize=14;fontFamily=Verdana;" parent="6bFEEpHuwUB9A2b2xNG7-127" vertex="1">
          <mxGeometry width="30" height="30" as="geometry">
            <mxRectangle width="30" height="30" as="alternateBounds" />
          </mxGeometry>
        </mxCell>
        <mxCell id="6bFEEpHuwUB9A2b2xNG7-129" value="remember_token" style="shape=partialRectangle;connectable=0;fillColor=none;top=0;left=0;bottom=0;right=0;align=left;spacingLeft=6;overflow=hidden;fontSize=14;fontFamily=Verdana;" parent="6bFEEpHuwUB9A2b2xNG7-127" vertex="1">
          <mxGeometry x="30" width="170" height="30" as="geometry">
            <mxRectangle width="170" height="30" as="alternateBounds" />
          </mxGeometry>
        </mxCell>
        <mxCell id="6bFEEpHuwUB9A2b2xNG7-130" value="" style="shape=partialRectangle;collapsible=0;dropTarget=0;pointerEvents=0;fillColor=none;top=0;left=0;bottom=0;right=0;points=[[0,0.5],[1,0.5]];portConstraint=eastwest;fontSize=14;fontFamily=Verdana;" parent="6bFEEpHuwUB9A2b2xNG7-102" vertex="1">
          <mxGeometry y="210" width="200" height="30" as="geometry" />
        </mxCell>
        <mxCell id="6bFEEpHuwUB9A2b2xNG7-131" value="" style="shape=partialRectangle;connectable=0;fillColor=none;top=0;left=0;bottom=0;right=0;editable=1;overflow=hidden;fontSize=14;fontFamily=Verdana;" parent="6bFEEpHuwUB9A2b2xNG7-130" vertex="1">
          <mxGeometry width="30" height="30" as="geometry">
            <mxRectangle width="30" height="30" as="alternateBounds" />
          </mxGeometry>
        </mxCell>
        <mxCell id="6bFEEpHuwUB9A2b2xNG7-132" value="reset_password" style="shape=partialRectangle;connectable=0;fillColor=none;top=0;left=0;bottom=0;right=0;align=left;spacingLeft=6;overflow=hidden;fontSize=14;fontFamily=Verdana;" parent="6bFEEpHuwUB9A2b2xNG7-130" vertex="1">
          <mxGeometry x="30" width="170" height="30" as="geometry">
            <mxRectangle width="170" height="30" as="alternateBounds" />
          </mxGeometry>
        </mxCell>
        <mxCell id="6bFEEpHuwUB9A2b2xNG7-133" value="" style="shape=partialRectangle;collapsible=0;dropTarget=0;pointerEvents=0;fillColor=none;top=0;left=0;bottom=0;right=0;points=[[0,0.5],[1,0.5]];portConstraint=eastwest;fontSize=14;fontFamily=Verdana;" parent="6bFEEpHuwUB9A2b2xNG7-102" vertex="1">
          <mxGeometry y="240" width="200" height="30" as="geometry" />
        </mxCell>
        <mxCell id="6bFEEpHuwUB9A2b2xNG7-134" value="" style="shape=partialRectangle;connectable=0;fillColor=none;top=0;left=0;bottom=0;right=0;editable=1;overflow=hidden;fontSize=14;fontFamily=Verdana;" parent="6bFEEpHuwUB9A2b2xNG7-133" vertex="1">
          <mxGeometry width="30" height="30" as="geometry">
            <mxRectangle width="30" height="30" as="alternateBounds" />
          </mxGeometry>
        </mxCell>
        <mxCell id="6bFEEpHuwUB9A2b2xNG7-135" value="is_notif_actived_at" style="shape=partialRectangle;connectable=0;fillColor=none;top=0;left=0;bottom=0;right=0;align=left;spacingLeft=6;overflow=hidden;fontSize=14;fontFamily=Verdana;" parent="6bFEEpHuwUB9A2b2xNG7-133" vertex="1">
          <mxGeometry x="30" width="170" height="30" as="geometry">
            <mxRectangle width="170" height="30" as="alternateBounds" />
          </mxGeometry>
        </mxCell>
        <mxCell id="6bFEEpHuwUB9A2b2xNG7-136" value="" style="shape=partialRectangle;collapsible=0;dropTarget=0;pointerEvents=0;fillColor=none;top=0;left=0;bottom=0;right=0;points=[[0,0.5],[1,0.5]];portConstraint=eastwest;fontSize=14;fontFamily=Verdana;" parent="6bFEEpHuwUB9A2b2xNG7-102" vertex="1">
          <mxGeometry y="270" width="200" height="30" as="geometry" />
        </mxCell>
        <mxCell id="6bFEEpHuwUB9A2b2xNG7-137" value="" style="shape=partialRectangle;connectable=0;fillColor=none;top=0;left=0;bottom=0;right=0;editable=1;overflow=hidden;fontSize=14;fontFamily=Verdana;" parent="6bFEEpHuwUB9A2b2xNG7-136" vertex="1">
          <mxGeometry width="30" height="30" as="geometry">
            <mxRectangle width="30" height="30" as="alternateBounds" />
          </mxGeometry>
        </mxCell>
        <mxCell id="6bFEEpHuwUB9A2b2xNG7-138" value="email_verified_at" style="shape=partialRectangle;connectable=0;fillColor=none;top=0;left=0;bottom=0;right=0;align=left;spacingLeft=6;overflow=hidden;fontSize=14;fontFamily=Verdana;" parent="6bFEEpHuwUB9A2b2xNG7-136" vertex="1">
          <mxGeometry x="30" width="170" height="30" as="geometry">
            <mxRectangle width="170" height="30" as="alternateBounds" />
          </mxGeometry>
        </mxCell>
        <mxCell id="6bFEEpHuwUB9A2b2xNG7-142" value="" style="shape=partialRectangle;collapsible=0;dropTarget=0;pointerEvents=0;fillColor=none;top=0;left=0;bottom=0;right=0;points=[[0,0.5],[1,0.5]];portConstraint=eastwest;fontSize=14;fontFamily=Verdana;" parent="6bFEEpHuwUB9A2b2xNG7-102" vertex="1">
          <mxGeometry y="300" width="200" height="30" as="geometry" />
        </mxCell>
        <mxCell id="6bFEEpHuwUB9A2b2xNG7-143" value="" style="shape=partialRectangle;connectable=0;fillColor=none;top=0;left=0;bottom=0;right=0;editable=1;overflow=hidden;fontSize=14;fontFamily=Verdana;" parent="6bFEEpHuwUB9A2b2xNG7-142" vertex="1">
          <mxGeometry width="30" height="30" as="geometry">
            <mxRectangle width="30" height="30" as="alternateBounds" />
          </mxGeometry>
        </mxCell>
        <mxCell id="6bFEEpHuwUB9A2b2xNG7-144" value="created_at" style="shape=partialRectangle;connectable=0;fillColor=none;top=0;left=0;bottom=0;right=0;align=left;spacingLeft=6;overflow=hidden;fontSize=14;fontFamily=Verdana;" parent="6bFEEpHuwUB9A2b2xNG7-142" vertex="1">
          <mxGeometry x="30" width="170" height="30" as="geometry">
            <mxRectangle width="170" height="30" as="alternateBounds" />
          </mxGeometry>
        </mxCell>
        <mxCell id="6bFEEpHuwUB9A2b2xNG7-145" value="" style="shape=partialRectangle;collapsible=0;dropTarget=0;pointerEvents=0;fillColor=none;top=0;left=0;bottom=0;right=0;points=[[0,0.5],[1,0.5]];portConstraint=eastwest;fontSize=14;fontFamily=Verdana;" parent="6bFEEpHuwUB9A2b2xNG7-102" vertex="1">
          <mxGeometry y="330" width="200" height="30" as="geometry" />
        </mxCell>
        <mxCell id="6bFEEpHuwUB9A2b2xNG7-146" value="" style="shape=partialRectangle;connectable=0;fillColor=none;top=0;left=0;bottom=0;right=0;editable=1;overflow=hidden;fontSize=14;fontFamily=Verdana;" parent="6bFEEpHuwUB9A2b2xNG7-145" vertex="1">
          <mxGeometry width="30" height="30" as="geometry">
            <mxRectangle width="30" height="30" as="alternateBounds" />
          </mxGeometry>
        </mxCell>
        <mxCell id="6bFEEpHuwUB9A2b2xNG7-147" value="updated_at" style="shape=partialRectangle;connectable=0;fillColor=none;top=0;left=0;bottom=0;right=0;align=left;spacingLeft=6;overflow=hidden;fontSize=14;fontFamily=Verdana;" parent="6bFEEpHuwUB9A2b2xNG7-145" vertex="1">
          <mxGeometry x="30" width="170" height="30" as="geometry">
            <mxRectangle width="170" height="30" as="alternateBounds" />
          </mxGeometry>
        </mxCell>
        <mxCell id="6bFEEpHuwUB9A2b2xNG7-148" style="edgeStyle=orthogonalEdgeStyle;rounded=0;orthogonalLoop=1;jettySize=auto;html=1;entryX=0.588;entryY=-0.021;entryDx=0;entryDy=0;entryPerimeter=0;endArrow=none;endFill=0;strokeColor=default;strokeWidth=1;fontSize=14;fontFamily=Verdana;" parent="1" source="6bFEEpHuwUB9A2b2xNG7-149" target="6bFEEpHuwUB9A2b2xNG7-90" edge="1">
          <mxGeometry relative="1" as="geometry" />
        </mxCell>
        <mxCell id="6bFEEpHuwUB9A2b2xNG7-149" value="&lt;span style=&quot;font-weight: normal;&quot;&gt;connected&lt;/span&gt;" style="ellipse;whiteSpace=wrap;html=1;fontStyle=1;strokeColor=#b85450;fillColor=#f8cecc;startSize=30;fontSize=14;fontFamily=Verdana;" parent="1" vertex="1">
          <mxGeometry x="720" y="585" width="120" height="60" as="geometry" />
        </mxCell>
        <mxCell id="6bFEEpHuwUB9A2b2xNG7-156" value="1,1&#xa;" style="text;strokeColor=none;fillColor=none;spacingLeft=4;spacingRight=4;overflow=hidden;rotatable=0;points=[[0,0.5],[1,0.5]];portConstraint=eastwest;fontSize=14;fontFamily=Verdana;" parent="1" vertex="1">
          <mxGeometry x="610" y="300" width="40" height="30" as="geometry" />
        </mxCell>
        <mxCell id="6bFEEpHuwUB9A2b2xNG7-157" value="1,N" style="text;strokeColor=none;fillColor=none;spacingLeft=4;spacingRight=4;overflow=hidden;rotatable=0;points=[[0,0.5],[1,0.5]];portConstraint=eastwest;fontSize=14;fontFamily=Verdana;" parent="1" vertex="1">
          <mxGeometry x="790" y="190" width="40" height="30" as="geometry" />
        </mxCell>
        <mxCell id="6bFEEpHuwUB9A2b2xNG7-161" value="1,N" style="text;strokeColor=none;fillColor=none;spacingLeft=4;spacingRight=4;overflow=hidden;rotatable=0;points=[[0,0.5],[1,0.5]];portConstraint=eastwest;fontSize=14;fontFamily=Verdana;" parent="1" vertex="1">
          <mxGeometry x="610" y="360" width="40" height="30" as="geometry" />
        </mxCell>
        <mxCell id="6bFEEpHuwUB9A2b2xNG7-213" value="1,N&#xa;" style="text;strokeColor=none;fillColor=none;spacingLeft=4;spacingRight=4;overflow=hidden;rotatable=0;points=[[0,0.5],[1,0.5]];portConstraint=eastwest;fontSize=14;fontFamily=Verdana;" parent="1" vertex="1">
          <mxGeometry x="990" y="540" width="40" height="30" as="geometry" />
        </mxCell>
        <mxCell id="6bFEEpHuwUB9A2b2xNG7-214" value="citizens" style="shape=table;startSize=35;container=1;collapsible=1;childLayout=tableLayout;fixedRows=1;rowLines=0;fontStyle=1;align=center;resizeLast=1;fillColor=#dae8fc;strokeColor=#6c8ebf;fontSize=14;fontFamily=Verdana;" parent="1" vertex="1">
          <mxGeometry x="360" y="274.5" width="240" height="232" as="geometry" />
        </mxCell>
        <mxCell id="6bFEEpHuwUB9A2b2xNG7-215" value="" style="shape=partialRectangle;collapsible=0;dropTarget=0;pointerEvents=0;fillColor=none;top=0;left=0;bottom=1;right=0;points=[[0,0.5],[1,0.5]];portConstraint=eastwest;fontSize=14;fontFamily=Verdana;strokeColor=none;" parent="6bFEEpHuwUB9A2b2xNG7-214" vertex="1">
          <mxGeometry y="35" width="240" height="30" as="geometry" />
        </mxCell>
        <mxCell id="6bFEEpHuwUB9A2b2xNG7-216" value="" style="shape=partialRectangle;connectable=0;fillColor=none;top=0;left=0;bottom=0;right=0;fontStyle=1;overflow=hidden;fontSize=14;fontFamily=Verdana;strokeColor=none;" parent="6bFEEpHuwUB9A2b2xNG7-215" vertex="1">
          <mxGeometry width="30" height="30" as="geometry">
            <mxRectangle width="30" height="30" as="alternateBounds" />
          </mxGeometry>
        </mxCell>
        <mxCell id="6bFEEpHuwUB9A2b2xNG7-217" value="id_citizen" style="shape=partialRectangle;connectable=0;fillColor=none;top=0;left=0;bottom=0;right=0;align=left;spacingLeft=6;fontStyle=5;overflow=hidden;fontSize=14;fontFamily=Verdana;" parent="6bFEEpHuwUB9A2b2xNG7-215" vertex="1">
          <mxGeometry x="30" width="210" height="30" as="geometry">
            <mxRectangle width="210" height="30" as="alternateBounds" />
          </mxGeometry>
        </mxCell>
        <mxCell id="6bFEEpHuwUB9A2b2xNG7-218" value="" style="shape=partialRectangle;collapsible=0;dropTarget=0;pointerEvents=0;fillColor=none;top=0;left=0;bottom=0;right=0;points=[[0,0.5],[1,0.5]];portConstraint=eastwest;fontSize=14;fontFamily=Verdana;" parent="6bFEEpHuwUB9A2b2xNG7-214" vertex="1">
          <mxGeometry y="65" width="240" height="31" as="geometry" />
        </mxCell>
        <mxCell id="6bFEEpHuwUB9A2b2xNG7-219" value="" style="shape=partialRectangle;connectable=0;fillColor=none;top=0;left=0;bottom=0;right=0;editable=1;overflow=hidden;fontSize=14;fontFamily=Verdana;" parent="6bFEEpHuwUB9A2b2xNG7-218" vertex="1">
          <mxGeometry width="30" height="31" as="geometry">
            <mxRectangle width="30" height="31" as="alternateBounds" />
          </mxGeometry>
        </mxCell>
        <mxCell id="6bFEEpHuwUB9A2b2xNG7-220" value="company_id" style="shape=partialRectangle;connectable=0;fillColor=none;top=0;left=0;bottom=0;right=0;align=left;spacingLeft=6;overflow=hidden;fontSize=14;fontFamily=Verdana;" parent="6bFEEpHuwUB9A2b2xNG7-218" vertex="1">
          <mxGeometry x="30" width="210" height="31" as="geometry">
            <mxRectangle width="210" height="31" as="alternateBounds" />
          </mxGeometry>
        </mxCell>
        <mxCell id="6bFEEpHuwUB9A2b2xNG7-221" value="" style="shape=partialRectangle;collapsible=0;dropTarget=0;pointerEvents=0;fillColor=none;top=0;left=0;bottom=0;right=0;points=[[0,0.5],[1,0.5]];portConstraint=eastwest;fontSize=14;fontFamily=Verdana;" parent="6bFEEpHuwUB9A2b2xNG7-214" vertex="1">
          <mxGeometry y="96" width="240" height="30" as="geometry" />
        </mxCell>
        <mxCell id="6bFEEpHuwUB9A2b2xNG7-222" value="" style="shape=partialRectangle;connectable=0;fillColor=none;top=0;left=0;bottom=0;right=0;editable=1;overflow=hidden;fontSize=14;fontFamily=Verdana;" parent="6bFEEpHuwUB9A2b2xNG7-221" vertex="1">
          <mxGeometry width="30" height="30" as="geometry">
            <mxRectangle width="30" height="30" as="alternateBounds" />
          </mxGeometry>
        </mxCell>
        <mxCell id="6bFEEpHuwUB9A2b2xNG7-223" value="email" style="shape=partialRectangle;connectable=0;fillColor=none;top=0;left=0;bottom=0;right=0;align=left;spacingLeft=6;overflow=hidden;fontSize=14;fontFamily=Verdana;" parent="6bFEEpHuwUB9A2b2xNG7-221" vertex="1">
          <mxGeometry x="30" width="210" height="30" as="geometry">
            <mxRectangle width="210" height="30" as="alternateBounds" />
          </mxGeometry>
        </mxCell>
        <mxCell id="6bFEEpHuwUB9A2b2xNG7-235" value="" style="shape=partialRectangle;collapsible=0;dropTarget=0;pointerEvents=0;fillColor=none;top=0;left=0;bottom=0;right=0;points=[[0,0.5],[1,0.5]];portConstraint=eastwest;fontSize=14;fontFamily=Verdana;" parent="6bFEEpHuwUB9A2b2xNG7-214" vertex="1">
          <mxGeometry y="126" width="240" height="25" as="geometry" />
        </mxCell>
        <mxCell id="6bFEEpHuwUB9A2b2xNG7-236" value="" style="shape=partialRectangle;connectable=0;fillColor=none;top=0;left=0;bottom=0;right=0;editable=1;overflow=hidden;fontSize=14;fontFamily=Verdana;" parent="6bFEEpHuwUB9A2b2xNG7-235" vertex="1">
          <mxGeometry width="30" height="25" as="geometry">
            <mxRectangle width="30" height="25" as="alternateBounds" />
          </mxGeometry>
        </mxCell>
        <mxCell id="6bFEEpHuwUB9A2b2xNG7-237" value="locale&#xa;" style="shape=partialRectangle;connectable=0;fillColor=none;top=0;left=0;bottom=0;right=0;align=left;spacingLeft=6;overflow=hidden;fontSize=14;fontFamily=Verdana;" parent="6bFEEpHuwUB9A2b2xNG7-235" vertex="1">
          <mxGeometry x="30" width="210" height="25" as="geometry">
            <mxRectangle width="210" height="25" as="alternateBounds" />
          </mxGeometry>
        </mxCell>
        <mxCell id="6bFEEpHuwUB9A2b2xNG7-259" value="" style="shape=partialRectangle;collapsible=0;dropTarget=0;pointerEvents=0;fillColor=none;top=0;left=0;bottom=0;right=0;points=[[0,0.5],[1,0.5]];portConstraint=eastwest;fontSize=14;fontFamily=Verdana;movable=1;resizable=1;rotatable=1;deletable=1;editable=1;locked=0;connectable=1;" parent="6bFEEpHuwUB9A2b2xNG7-214" vertex="1">
          <mxGeometry y="151" width="240" height="25" as="geometry" />
        </mxCell>
        <mxCell id="6bFEEpHuwUB9A2b2xNG7-260" value="" style="shape=partialRectangle;connectable=0;fillColor=none;top=0;left=0;bottom=0;right=0;editable=1;overflow=hidden;fontSize=14;fontFamily=Verdana;" parent="6bFEEpHuwUB9A2b2xNG7-259" vertex="1">
          <mxGeometry width="30" height="25" as="geometry">
            <mxRectangle width="30" height="25" as="alternateBounds" />
          </mxGeometry>
        </mxCell>
        <mxCell id="6bFEEpHuwUB9A2b2xNG7-261" value="created_at" style="shape=partialRectangle;connectable=0;fillColor=none;top=0;left=0;bottom=0;right=0;align=left;spacingLeft=6;overflow=hidden;fontSize=14;fontFamily=Verdana;" parent="6bFEEpHuwUB9A2b2xNG7-259" vertex="1">
          <mxGeometry x="30" width="210" height="25" as="geometry">
            <mxRectangle width="210" height="25" as="alternateBounds" />
          </mxGeometry>
        </mxCell>
        <mxCell id="6bFEEpHuwUB9A2b2xNG7-262" value="" style="shape=partialRectangle;collapsible=0;dropTarget=0;pointerEvents=0;fillColor=none;top=0;left=0;bottom=0;right=0;points=[[0,0.5],[1,0.5]];portConstraint=eastwest;fontSize=14;fontFamily=Verdana;movable=1;resizable=1;rotatable=1;deletable=1;editable=1;locked=0;connectable=1;" parent="6bFEEpHuwUB9A2b2xNG7-214" vertex="1">
          <mxGeometry y="176" width="240" height="25" as="geometry" />
        </mxCell>
        <mxCell id="6bFEEpHuwUB9A2b2xNG7-263" value="" style="shape=partialRectangle;connectable=0;fillColor=none;top=0;left=0;bottom=0;right=0;editable=1;overflow=hidden;fontSize=14;fontFamily=Verdana;" parent="6bFEEpHuwUB9A2b2xNG7-262" vertex="1">
          <mxGeometry width="30" height="25" as="geometry">
            <mxRectangle width="30" height="25" as="alternateBounds" />
          </mxGeometry>
        </mxCell>
        <mxCell id="6bFEEpHuwUB9A2b2xNG7-264" value="updated_at" style="shape=partialRectangle;connectable=0;fillColor=none;top=0;left=0;bottom=0;right=0;align=left;spacingLeft=6;overflow=hidden;fontSize=14;fontFamily=Verdana;" parent="6bFEEpHuwUB9A2b2xNG7-262" vertex="1">
          <mxGeometry x="30" width="210" height="25" as="geometry">
            <mxRectangle width="210" height="25" as="alternateBounds" />
          </mxGeometry>
        </mxCell>
        <mxCell id="6bFEEpHuwUB9A2b2xNG7-254" value="" style="shape=partialRectangle;collapsible=0;dropTarget=0;pointerEvents=0;fillColor=none;top=0;left=0;bottom=0;right=0;points=[[0,0.5],[1,0.5]];portConstraint=eastwest;fontSize=14;fontFamily=Verdana;" parent="6bFEEpHuwUB9A2b2xNG7-214" vertex="1">
          <mxGeometry y="201" width="240" height="30" as="geometry" />
        </mxCell>
        <mxCell id="6bFEEpHuwUB9A2b2xNG7-255" value="" style="shape=partialRectangle;connectable=0;fillColor=none;top=0;left=0;bottom=0;right=0;editable=1;overflow=hidden;fontSize=14;fontFamily=Verdana;" parent="6bFEEpHuwUB9A2b2xNG7-254" vertex="1">
          <mxGeometry width="30" height="30" as="geometry">
            <mxRectangle width="30" height="30" as="alternateBounds" />
          </mxGeometry>
        </mxCell>
        <mxCell id="6bFEEpHuwUB9A2b2xNG7-256" value="#id_citizen_accounts" style="shape=partialRectangle;connectable=0;fillColor=none;top=0;left=0;bottom=0;right=0;align=left;spacingLeft=6;overflow=hidden;fontSize=14;fontFamily=Verdana;" parent="6bFEEpHuwUB9A2b2xNG7-254" vertex="1">
          <mxGeometry x="30" width="210" height="30" as="geometry">
            <mxRectangle width="210" height="30" as="alternateBounds" />
          </mxGeometry>
        </mxCell>
        <mxCell id="6bFEEpHuwUB9A2b2xNG7-265" value="citizen_devices" style="shape=table;startSize=35;container=1;collapsible=1;childLayout=tableLayout;fixedRows=1;rowLines=0;fontStyle=1;align=center;resizeLast=1;fillColor=#dae8fc;strokeColor=#6c8ebf;fontSize=14;fontFamily=Verdana;" parent="1" vertex="1">
          <mxGeometry x="680" y="690" width="220" height="125" as="geometry" />
        </mxCell>
        <mxCell id="6bFEEpHuwUB9A2b2xNG7-266" value="" style="shape=partialRectangle;collapsible=0;dropTarget=0;pointerEvents=0;fillColor=none;top=0;left=0;bottom=1;right=0;points=[[0,0.5],[1,0.5]];portConstraint=eastwest;fontSize=14;fontFamily=Verdana;strokeColor=none;" parent="6bFEEpHuwUB9A2b2xNG7-265" vertex="1">
          <mxGeometry y="35" width="220" height="30" as="geometry" />
        </mxCell>
        <mxCell id="6bFEEpHuwUB9A2b2xNG7-267" value="" style="shape=partialRectangle;connectable=0;fillColor=none;top=0;left=0;bottom=0;right=0;fontStyle=1;overflow=hidden;fontSize=14;fontFamily=Verdana;strokeColor=none;" parent="6bFEEpHuwUB9A2b2xNG7-266" vertex="1">
          <mxGeometry width="30" height="30" as="geometry">
            <mxRectangle width="30" height="30" as="alternateBounds" />
          </mxGeometry>
        </mxCell>
        <mxCell id="6bFEEpHuwUB9A2b2xNG7-268" value="id_citizen_device" style="shape=partialRectangle;connectable=0;fillColor=none;top=0;left=0;bottom=0;right=0;align=left;spacingLeft=6;fontStyle=5;overflow=hidden;fontSize=14;fontFamily=Verdana;" parent="6bFEEpHuwUB9A2b2xNG7-266" vertex="1">
          <mxGeometry x="30" width="190" height="30" as="geometry">
            <mxRectangle width="190" height="30" as="alternateBounds" />
          </mxGeometry>
        </mxCell>
        <mxCell id="6bFEEpHuwUB9A2b2xNG7-269" value="" style="shape=partialRectangle;collapsible=0;dropTarget=0;pointerEvents=0;fillColor=none;top=0;left=0;bottom=0;right=0;points=[[0,0.5],[1,0.5]];portConstraint=eastwest;fontSize=14;fontFamily=Verdana;" parent="6bFEEpHuwUB9A2b2xNG7-265" vertex="1">
          <mxGeometry y="65" width="220" height="30" as="geometry" />
        </mxCell>
        <mxCell id="6bFEEpHuwUB9A2b2xNG7-270" value="" style="shape=partialRectangle;connectable=0;fillColor=none;top=0;left=0;bottom=0;right=0;editable=1;overflow=hidden;fontSize=14;fontFamily=Verdana;" parent="6bFEEpHuwUB9A2b2xNG7-269" vertex="1">
          <mxGeometry width="30" height="30" as="geometry">
            <mxRectangle width="30" height="30" as="alternateBounds" />
          </mxGeometry>
        </mxCell>
        <mxCell id="6bFEEpHuwUB9A2b2xNG7-271" value="#id_citizen" style="shape=partialRectangle;connectable=0;fillColor=none;top=0;left=0;bottom=0;right=0;align=left;spacingLeft=6;overflow=hidden;fontSize=14;fontFamily=Verdana;" parent="6bFEEpHuwUB9A2b2xNG7-269" vertex="1">
          <mxGeometry x="30" width="190" height="30" as="geometry">
            <mxRectangle width="190" height="30" as="alternateBounds" />
          </mxGeometry>
        </mxCell>
        <mxCell id="6bFEEpHuwUB9A2b2xNG7-272" value="" style="shape=partialRectangle;collapsible=0;dropTarget=0;pointerEvents=0;fillColor=none;top=0;left=0;bottom=0;right=0;points=[[0,0.5],[1,0.5]];portConstraint=eastwest;fontSize=14;fontFamily=Verdana;" parent="6bFEEpHuwUB9A2b2xNG7-265" vertex="1">
          <mxGeometry y="95" width="220" height="20" as="geometry" />
        </mxCell>
        <mxCell id="6bFEEpHuwUB9A2b2xNG7-273" value="" style="shape=partialRectangle;connectable=0;fillColor=none;top=0;left=0;bottom=0;right=0;editable=1;overflow=hidden;fontSize=14;fontFamily=Verdana;" parent="6bFEEpHuwUB9A2b2xNG7-272" vertex="1">
          <mxGeometry width="30" height="20" as="geometry">
            <mxRectangle width="30" height="20" as="alternateBounds" />
          </mxGeometry>
        </mxCell>
        <mxCell id="6bFEEpHuwUB9A2b2xNG7-274" value="#id_device" style="shape=partialRectangle;connectable=0;fillColor=none;top=0;left=0;bottom=0;right=0;align=left;spacingLeft=6;overflow=hidden;fontSize=14;fontFamily=Verdana;" parent="6bFEEpHuwUB9A2b2xNG7-272" vertex="1">
          <mxGeometry x="30" width="190" height="20" as="geometry">
            <mxRectangle width="190" height="20" as="alternateBounds" />
          </mxGeometry>
        </mxCell>
      </root>
    </mxGraphModel>
  </diagram>
</mxfile>
